*********** ****    ****      ***      ******** *********** ****    *** **********
           *+*     +*+*+* *+*+*+   *+* *+*   *+*    *+*    *+*     *+*+*   *+* *+*        
           +*+     +*+ +*+*+ +*+  +*+   +*+  +*+           +*+     *+*+*+  +*+ +*+        
           +$+     +$+  +*+  +$+ +$++*++$++* *$*           +$+     +$+ +*+ +$+ +$++*++$  
           +$+     +$+       +$+ +$+     +$+ +$+   +$+$    +$+     +$+  +$+$+$ +$+        
           $+$     $+$       $+$ $+$     $+$ $+$    $+$    $+$     $+$   $+$+$ $+$        
       $$$$$$$$$$$ $$$       $$$ $$$     $$$  $$$$$$$$ $$$$$$$$$$$ $$$    $$$$ $$$$$$$$$$     
                                                



                           Another Fine Release Brought to you from - IMAGiNE                   
                                                 

********************************************************************************************************************                                
                                   Marmaduke R5 CAM AUDIO XViD - IMAGiNE
********************************************************************************************************************

Ripper ...........: IMAGiNE                                        IMDB Rating.......:1.9/10                             
Video Codec.......: XVID                                         Release Date......:04/07/10
Audio Codec.......:MP3                                           Theatre Date......:04/06/10
Audio Bitrate.....:128                                              Runtime.......:1h 24mn
Subtitles.........:NIL                                                 Language..........:ENGLISH
Resolution...... 720 x 304                                      IMDb URL..........:http://www.imdb.com/title/tt1392197/


[color=yellow]DETAILS:[/color]

Video
ID                               : 0
Format                           : MPEG-4 Visual
Format profile                   : Advanced Simple@L5
Format settings, BVOP            : Yes
Format settings, QPel            : No
Format settings, GMC             : No warppoints
Format settings, Matrix          : Default (MPEG)
Muxing mode                      : Packed bitstream
Codec ID                         : XVID
Codec ID/Hint                    : XviD
Duration                         : 1h 23mn
Bit rate                         : 2 182 Kbps
Width                            : 720 pixels
Height                           : 304 pixels
Display aspect ratio             : 2.35
Frame rate                       : 25.000 fps
Resolution                       : 24 bits
Colorimetry                      : 4:2:0
Scan type                        : Progressive
Bits/(Pixel*Frame)               : 0.399
Stream size                      : 1.29 GiB (94%)
Writing library                  : XviD 1.2.1 (UTC 2008-12-04)

Audio
Format                           : MPEG Audio
Format version                   : Version 1
Format profile                   : Layer 3
Duration                         : 1h 24mn
Bit rate mode                    : Constant
Bit rate                         : 128 Kbps
Channel(s)                       : 2 channels
Sampling rate                    : 44.1 KHz
Resolution                       : 16 bits
Stream size                      : 77.4 MiB (100%)


[color=yellow]NOTES:[/color]

IMAGiNE bringing you another release.....Marmaduke R5

Sources used ,the russian R5 dvdr,our audio and the audio off the dvdr.....Thanks for the r5 guys :)
Well all we've done is ripped the r5 dvdr which was pretty good,however thought the colours were too strong and slightly
off so balanced that out and then it was a case of just doing the normal cropping and resizing and also used a sharpen filter but 
only.20 so not much really.
The audio we have opted to use the first 53 secs and all the end credits audio off the original ac3 track that was on the russian dvd and then 
for the main film it is our cam audio we used before.
At the mo no sign of any line.....even though we've had a few messages about it ,but nothing solid as come through as of yet.....and if it does then 
we shall do a v2.

Enjoy :)


[color=yellow]SCREENS:[/color]

screen shot off the first 15mins:
[img]http://imagine.takagari.com/MARMADUKE%20R5/vlcsnap-108129.png[/img]
[img]http://imagine.takagari.com/MARMADUKE%20R5/vlcsnap-108395.png[/img]
[img]http://imagine.takagari.com/MARMADUKE%20R5/vlcsnap-108553.png[/img]
[img]http://imagine.takagari.com/MARMADUKE%20R5/vlcsnap-110205.png[/img]


[color=yellow]GREETS:[/color]

FLAWL3SS,ViSiON,FUSiON,Rx,SecretMyth,BirdFlu,ELEKTRI4KA and Autotron
And to all the other p2p grps past and present 

Special thanks to Python-Lair for the server :)
And special thanks to supreme-speeds.com for the ripbox :)
Also to The Scene Nation for all their help :)

[COLOR=RED]Looking for these,syncers,cammers,silver supplier.....Have anything to offer????......
Contact us imaginegroup@hushmail.com[/COLOR]
